<mxfile host="app.diagrams.net" modified="2021-06-23T10:34:25.157Z" agent="5.0 (Windows NT 10.0; Win64; x64) AppleWebKit/537.36 (KHTML, like Gecko) Chrome/91.0.4472.106 Safari/537.36" etag="fnaCczC01W2n5abGwqUO" version="14.7.6" type="github">
  <diagram id="C5RBs43oDa-KdzZeNtuy" name="Page-1">
    <mxGraphModel dx="1422" dy="825" grid="1" gridSize="10" guides="1" tooltips="1" connect="1" arrows="1" fold="1" page="1" pageScale="1" pageWidth="827" pageHeight="1169" math="0" shadow="0">
      <root>
        <mxCell id="WIyWlLk6GJQsqaUBKTNV-0" />
        <mxCell id="WIyWlLk6GJQsqaUBKTNV-1" parent="WIyWlLk6GJQsqaUBKTNV-0" />
        <mxCell id="zaCk3NNadUrgmM4pmmFe-0" value="&lt;b&gt;DicomSRParser&lt;br&gt;&lt;/b&gt;(Reads SR Document)" style="html=1;dropTarget=0;" vertex="1" parent="WIyWlLk6GJQsqaUBKTNV-1">
          <mxGeometry x="500" y="120" width="220" height="150" as="geometry" />
        </mxCell>
        <mxCell id="zaCk3NNadUrgmM4pmmFe-1" value="" style="shape=module;jettyWidth=8;jettyHeight=4;" vertex="1" parent="zaCk3NNadUrgmM4pmmFe-0">
          <mxGeometry x="1" width="20" height="20" relative="1" as="geometry">
            <mxPoint x="-27" y="7" as="offset" />
          </mxGeometry>
        </mxCell>
        <mxCell id="zaCk3NNadUrgmM4pmmFe-2" value="&lt;b&gt;DicomSRToPDMMapper&lt;/b&gt;&lt;br&gt;(Triggers SR reading and updates PDM with ADM)" style="html=1;dropTarget=0;" vertex="1" parent="WIyWlLk6GJQsqaUBKTNV-1">
          <mxGeometry x="30" y="120" width="300" height="160" as="geometry" />
        </mxCell>
        <mxCell id="zaCk3NNadUrgmM4pmmFe-3" value="" style="shape=module;jettyWidth=8;jettyHeight=4;" vertex="1" parent="zaCk3NNadUrgmM4pmmFe-2">
          <mxGeometry x="1" width="20" height="20" relative="1" as="geometry">
            <mxPoint x="-27" y="7" as="offset" />
          </mxGeometry>
        </mxCell>
        <mxCell id="zaCk3NNadUrgmM4pmmFe-8" value="" style="rounded=0;orthogonalLoop=1;jettySize=auto;html=1;endArrow=none;endFill=0;" edge="1" target="zaCk3NNadUrgmM4pmmFe-10" parent="WIyWlLk6GJQsqaUBKTNV-1">
          <mxGeometry relative="1" as="geometry">
            <mxPoint x="500" y="200" as="sourcePoint" />
          </mxGeometry>
        </mxCell>
        <mxCell id="zaCk3NNadUrgmM4pmmFe-9" value="" style="rounded=0;orthogonalLoop=1;jettySize=auto;html=1;endArrow=halfCircle;endFill=0;entryX=0.5;entryY=0.5;entryDx=0;entryDy=0;endSize=6;strokeWidth=1;exitX=1;exitY=0.5;exitDx=0;exitDy=0;" edge="1" target="zaCk3NNadUrgmM4pmmFe-10" parent="WIyWlLk6GJQsqaUBKTNV-1" source="zaCk3NNadUrgmM4pmmFe-2">
          <mxGeometry relative="1" as="geometry">
            <mxPoint x="340" y="200" as="sourcePoint" />
          </mxGeometry>
        </mxCell>
        <mxCell id="zaCk3NNadUrgmM4pmmFe-10" value="" style="ellipse;whiteSpace=wrap;html=1;fontFamily=Helvetica;fontSize=12;fontColor=#000000;align=center;strokeColor=#000000;fillColor=#ffffff;points=[];aspect=fixed;resizable=0;" vertex="1" parent="WIyWlLk6GJQsqaUBKTNV-1">
          <mxGeometry x="405" y="195" width="10" height="10" as="geometry" />
        </mxCell>
        <mxCell id="zaCk3NNadUrgmM4pmmFe-11" value="ISRReaderFacade" style="text;html=1;align=center;verticalAlign=middle;resizable=0;points=[];autosize=1;strokeColor=none;" vertex="1" parent="WIyWlLk6GJQsqaUBKTNV-1">
          <mxGeometry x="355" y="220" width="110" height="20" as="geometry" />
        </mxCell>
      </root>
    </mxGraphModel>
  </diagram>
</mxfile>
